<svg viewBox="0 0 48 48" fill="none" xmlns="http://www.w3.org/2000/svg">
  <circle cx="24" cy="24" r="22" stroke="#00d4ff" stroke-width="2" fill="rgba(0,212,255,0.1)"/>
  <path d="M24 8c-2 0-4 1-5 3-1-2-3-3-5-3-4 0-7 3-7 7 0 8 12 18 12 18s12-10 12-18c0-4-3-7-7-7z" fill="#00d4ff" opacity="0.8"/>
  <circle cx="18" cy="20" r="2" fill="#0a0e17"/>
  <circle cx="30" cy="20" r="2" fill="#0a0e17"/>
  <path d="M20 26c2 2 8 2 8 0" stroke="#0a0e17" stroke-width="2" stroke-linecap="round"/>
  <path d="M14 10c0-2 2-4 5-4s5 2 5 4" stroke="#00ff88" stroke-width="1.5" stroke-linecap="round"/>
</svg>